<svg width="20" height="20" viewBox="0 0 20 20" fill="none" xmlns="http://www.w3.org/2000/svg">
<path d="M16.6922 7.94218L10.4422 14.1922C10.3841 14.2503 10.3152 14.2964 10.2393 14.3278C10.1634 14.3593 10.0821 14.3755 9.99998 14.3755C9.91785 14.3755 9.83652 14.3593 9.76064 14.3278C9.68477 14.2964 9.61584 14.2503 9.55779 14.1922L3.30779 7.94218C3.19052 7.82491 3.12463 7.66585 3.12463 7.5C3.12463 7.33414 3.19052 7.17508 3.30779 7.05781C3.42507 6.94053 3.58413 6.87465 3.74998 6.87465C3.91583 6.87465 4.07489 6.94053 4.19217 7.05781L9.99998 12.8664L15.8078 7.05781C15.8659 6.99974 15.9348 6.95368 16.0107 6.92225C16.0865 6.89082 16.1679 6.87465 16.25 6.87465C16.3321 6.87465 16.4134 6.89082 16.4893 6.92225C16.5652 6.95368 16.6341 6.99974 16.6922 7.05781C16.7502 7.11588 16.7963 7.18482 16.8277 7.26069C16.8592 7.33656 16.8753 7.41787 16.8753 7.5C16.8753 7.58212 16.8592 7.66344 16.8277 7.73931C16.7963 7.81518 16.7502 7.88412 16.6922 7.94218Z" fill="#B2B8DE"/>
</svg>
